<?xml version="1.0" encoding="UTF-8"?>
<!DOCTYPE svg  PUBLIC '-//W3C//DTD SVG 1.1//EN'  'http://www.w3.org/Graphics/SVG/1.1/DTD/svg11.dtd'>
<svg enable-background="new 189.2455 135.6955 705.7545 745.8735" version="1.1" viewBox="189.2455 135.6955 705.7545 745.8735" xml:space="preserve" xmlns="http://www.w3.org/2000/svg">
<g stroke-width=".0938">
	<path d="m469.98 149.21c25.31-2.25 50.79-1.26 76.09 0.72 21.58 1.87 43.08 4.79 64.38 8.77 38.36 7.6 75.06 22.27 109.43 40.74 4.4 2.57 9.1 4.72 13.08 7.95-1.15-0.36-2.28-0.78-3.37-1.25-30-17.31-62.04-31.23-95.38-40.67-23.84-6.79-48.48-10.13-73.03-13.08-20.31-2.43-40.76-3.21-61.19-3.71-22.43 0.1-44.91 2.14-66.74 7.49-7.68 1.61-15.05 4.41-22.75 5.94 19.13-6.88 39.29-10.73 59.48-12.9z" fill="#ABABAB" stroke="#ABABAB"/>
	<path d="m644.7 565.96c0.41-6 1.27-11.95 1.97-17.91 0.02 5.35-1.13 10.61-1.34 15.96-1 11.29-0.54 22.64-0.58 33.97-0.27 11.37 0.87 22.71 2.22 33.99 0.72 6.3701 2.44 12.61 2.75 19.03-3.03-17.84-5.9399-35.85-5.46-54.01 0.13-10.35-0.42-20.71 0.44-31.03z" fill="#ABABAB" stroke="#ABABAB"/>
	<path d="m703.23 568.9c4.14 21.15 7.21 42.58 7.73 64.15 0.9 8.97 0.97 17.99 0.73 26.99-1.49 17.89-1.23 37.05-10.53 53.04 7.19-14.87 8.47-31.65 9.4301-47.89 0.95-6.68 0.53-13.43 0.6299-20.15-1.12-11.39-1.22-22.85-2.56-34.22-1.12-14.06-3.47-27.97-5.43-41.92z" fill="#ABABAB" stroke="#ABABAB"/>
	<path d="m658.83 684.24c-1.82-5.34-3.73-10.7-4.61-16.28 1.79 6.25 3.6 12.52 6.1 18.54 3.98 9.73 8.21 19.6 15.05 27.72 3.49 4.21 8.85 7.36 14.46 6.79 2.5-0.51 4.76-1.78 7.11-2.75-2.73 1.6-5.67 3.27-8.94 3.1-5.31 0.04-9.99-3.25-13.38-7.07-7.58-8.6-11.9-19.42-15.79-30.05z" fill="#ABABAB" stroke="#ABABAB"/>
	<path d="m433.25 156.17c21.83-5.35 44.31-7.39 66.74-7.49 20.43 0.5 40.88 1.28 61.19 3.71 24.55 2.95 49.19 6.29 73.03 13.08 33.34 9.44 65.38 23.36 95.38 40.67 1.09 0.47 2.22 0.89 3.37 1.25l0.09 0.03c3.66 3.23 8.07 5.42 11.97 8.33 13.29 9.46 26.09 20.42 34.31 34.75 3.49 5.92 5.56 12.53 6.97 19.23 0.65 9.7-0.12 19.4-0.98 29.06-0.72 8.1-2.52 16.03-3.85 24.03 4.28 20.28 9.13 40.45 13.28 60.76 2.9 0.3 5.82 0.36 8.74 0.21 7.1 0.24 14.04 2.31 20.6 4.96l0.46 0.31c3.6 2.55 7.71 4.26 11.32 6.81 5.8 4.05 10.78 9.17 15.36 14.55 15.68 20.04 22.29 45.6 23.76 70.63 0.78 9.24 0.6 18.55-0.18 27.79-1.57 20.95-7.49 41.56-17.04 60.27-4.82 9.48-10.75 18.33-16.97 26.93-0.07 0.43-0.22 1.29-0.3 1.72-2.02 17.28-8.31 33.71-15.46 49.44-7.35 15.65-15.45 31.07-25.85 44.93-2.02 2.63-4.31 5.04-6.38 7.63-5.06 20.31-13.29 40.09-26.38 56.58-6.31 7.86-13.19 15.35-21.17 21.55-8.07 6.33-17.05 11.42-26.64 15.04-16.58 5.5-34.95 5.25-51.49-0.27-14.48-4.87-27.24-14.03-37.55-25.2-11.95-13.21-21.49-28.59-28.52-44.93-6.98-16.71-13.48-33.7-17.72-51.34-7.04-28.1-9.6-57.27-8.1-86.18 0.62-27.09 4.45-54.11 11.71-80.23 5.18-17.26 12.62-34.07 23.56-48.48 9.63-12.66 22.75-23.05 38.13-27.66 9.75-2.97 20.15-3.85 30.27-2.63 3.7 0.34 7.38 0.94 11.02 1.7 9.39-14.95 21.53-29.02 37.58-36.95 1.37-0.47 2.76-0.9 4.16-1.34-2.52-14.34-9.6-27.3-16.1-40.15-13.63-25.3-28.59-49.96-46-72.85-3.19-4.01-5.99-8.41-9.99-11.69-0.04-0.06-0.11-0.18-0.15-0.24-1.4-2.7-3.53-4.89-5.84-6.81-4.4-4.37-8.3-9.21-12.81-13.48-3.3-3.45-7.1-6.37-10.4-9.82-3.23-4.03-7.52-6.96-11.6-10.03-12.5-9.21-26.4-16.68-41.36-20.95-16.99-5.37-35.35-4.72-52.61-0.98-13.53 2.92-26.57 7.82-38.98 13.91-7.91 3.96-15.63 8.27-23.07 13.03-8.27 5.35-16.38 10.94-24.12 17.02-8.64 6.79-17.15 13.75-25.21 21.21-8.87 7.98-17.46 16.27-25.76 24.84-6.91 7.44-13.86 14.86-20.31 22.71-4.36 5.39-8.71 10.79-12.7 16.45-8.05 11.23-15.39 23.03-21 35.68-4.15 9.45-7.46 19.3-9.16 29.5-1.34 7.28-1.51 14.8-0.66 22.15 2.56 13.89 10.29 26.21 19.24 36.89 11.82 13.25 24.16 26.05 35.51 39.72 2.55 3.14 5.44 6.1 7.24 9.78 0.23 0.49 0.67 1.46 0.9 1.95 28.68 0.27 57.85 6.48 82.74 21.16 1.88 1.05 3.89 1.83 5.89 2.65 7.92 5.27 15.35 11.32 21.95 18.19 3.89 4.25 7.64 8.63 11.06 13.27 24.06 32.7 33.87 73.41 37.89 113.19 1.58 20.06 3.2 40.27 1.43 60.38-1.41 18.43-6.55 36.57-14.73 53.14-4.88 9.88-10.77 19.26-17.61 27.9-5.59 7.11-11.78 13.73-18.27 20.02-5.24 4.84-10.51 9.6801-16.26 13.91-0.46 0.11-1.39 0.33-1.86 0.44-2.54-0.75-4.57-2.45-6.43-4.23-7.49 8.45-17.22 14.76-27.78 18.67-17.89 5.84-37.78 3.85-54.85-3.73-17.82-7.92-32.91-20.96-45.64-35.54-13.88-1.44-26.56-8.87-35.93-18.99-14.29-15.15-23.08-34.5-30.18-53.83-10.68-29.28-13.05-61.38-7.3-91.97-4.15-7.84-9.29-15.22-13.62-23.01-13.14-22.58-25.37-45.8-34.75-70.22-7.19-19.05-12.94-39.09-12.67-59.62 0.39-11.78 1.7-24.03 7.59-34.48 5.43-9.86 16.09-16.23 27.08-17.74-6.49-1.62-13.2-2.94-18.97-6.52-11.46-6.53-18.55-18.69-21.68-31.2-3.77-15.4-3.93-31.62-0.89-47.15 3.32-17.27 9.59-33.82 16.85-49.78 13.11-29.62 32.45-56.28 55.76-78.7 25.06-24.14 54.05-43.98 84.78-60.19 16.14-8.33 32.83-15.75 50.17-21.17 7.7-1.5299 15.07-4.3299 22.75-5.9399m-101.02 50.04c-32.34 20.69-62.08 46.21-84.45 77.61-12.3 17.06-21.8 35.99-29.58 55.49-5.97 15.26-10.83 31.18-11.9 47.62-0.52 10.44 0.12 21.05 2.83 31.19 2.72 10.3 8.6 20.3 18.1 25.65 8.6 5.14 18.89 5.74 28.63 5.68 5.91 2.45 12.82 4.33 16.77 9.74-1.35 0.9-2.89 1.49-4.53 1.4-12.77 0.29-26.36 1.04-37.54 7.9-9.33 5.83-12.96 17.13-14.42 27.46-3.47 22.98 2.27 46.09 10.22 67.54 11.9 31.65 28.53 61.27 46.21 90.01 1.36 2.43 3.31 4.63 4.2 7.27-6.55 30.61-4 63.02 6.89 92.36 6.67 17.73 14.74 35.47 27.75 49.52 8.93 9.71 21.23 16.74 34.6 17.41 7.87 9.07 16.44 17.6 26.13 24.72 11.97 8.84 25.91 15.47 40.8 17.18 14.44 1.79 29.68-1.06 41.87-9.19 12.5-8.2 21.47-20.75 27.95-34.03 9.74-19.84 14.86-41.71 16.68-63.67 3.65-43.68-5.42-87.62-21.56-128.11-11.81-29.31-26.16-58.51-48.72-81.13-12.14-12.25-27.15-21.83-43.82-26.51-1.32-1.59-1.96-3.64-2.88-5.46 13.84 1.93 27.12 7.24 38.78 14.91 13.27 8.69 24.47 20.22 34.02 32.82 12.12 16.09 21.71 33.93 29.87 52.31 18.35 41.2 28.42 86.82 24.19 132.01-3.2 34.52-15.34 67.6-31.52 98.06 24.62-19.38 45.12-44.97 55.16-74.92 5.95-17.34 8.1-35.8 7.54-54.07-0.33-28.26-2.89-56.64-9.75-84.11-7.41-29.51-20.47-58.55-42.56-80.01-12.7-12.52-28.25-22.03-44.99-28.12-19.54-7.13-40.46-9.9-61.2-9.88-5.96-9.38-13.59-17.53-20.83-25.91-8.69-10-18.09-19.36-26.56-29.55-10.82-13.41-19.79-29.72-19.32-47.43 0.56-27.06 12.4-52.42 27.06-74.63 16.43-24.63 36.72-46.44 58.21-66.7 25.75-24.09 53.86-46.32 85.95-61.36 19.82-9.21 41.42-15.39 63.41-15.29 18.91 0.03 37.49 5.78 53.91 14.98 18.14 10.1 33.96 23.9 48.1 39.01 25.51 27.53 45.95 59.3 64.21 91.96 7.67 14.18 15.5 28.52 19.93 44.1 0.67 3.7 2.39 7.98 0.44 11.49-3.31 1.75-6.9 2.97-10.08 4.98-14.77 8.71-25.6 22.62-34.22 37.18-11.25-3.09-23.14-4.36-34.7-2.37-12.54 2.03-24.21 8.22-33.39 16.94-11.1 10.53-18.95 24.02-24.9 38-9.85 23.38-14.64 48.57-16.99 73.73-1.76 20.23-2.41 40.6-0.99 60.87 1.89 26.08 7.57 51.87 16.59 76.41 5.85 15.9 12.85 31.48 22.11 45.71 8.68 13.3 19.51 25.55 33.18 33.88 14.2 8.8 31.41 12.42 47.98 10.49 13.91-1.56 27.08-7.56 38.09-16.11 13.75-10.69 24.92-24.55 33.1-39.89 6.2401-11.54 10.25-24.11 13.31-36.81 14.11-15.47 23.94-34.23 32.76-53.08 6.92-15.44 13.2-31.55 14.67-48.55-0.05-2.08 1.6299-3.49 2.71-5.0699 20.29-26.43 31.84-59.45 32.02-92.8 0.26-21.33-2.32-43.12-10.96-62.8-7.08-15.99-18.52-30.95-34.7-38.45-10.36-4.65-22.18-6.93-33.44-4.93-4.91-22.93-10.3-45.77-15.05-68.73 2.49-11.91 4.46-23.96 4.96-36.14 0.2-6.64 0.74-13.42-0.96-19.91-2.35-9.58-7.84-18.08-14.32-25.38-8.54-9.56-18.79-17.42-29.47-24.44-15.33-10.01-31.72-18.25-48.38-25.79-21.65-9.71-44.12-17.7-67.24-23.1-19.18-4.38-38.7-7.04-58.22-9.37-27.2-2.96-54.63-4.4-81.98-2.99-52.18 3.17-102.12 23.11-145.77 51.2z" fill="#fff" stroke="#fff"/>
	<path d="m758.1 414.41c3.7401-1.76 7.98-1.06 11.96-0.93 14.78 0.83 29.6 5.85 40.81 15.72 16.32 14.12 25.08 35.51 26.17 56.81 0.91 18.2-0.85 38.04-12.18 53.08-3.23-20.82-13.97-39.69-27.14-55.81-10.16-12.29-24.91-21.96-41.35-21.71-9.49-6.43-19.02-13.38-30.18-16.56 6.2-7.68 12.59-15.25 19.82-21.99 3.67-3.31 7.53-6.58 12.09-8.61m0.99 8.16l-0.19-0.11c-3.56 2.55-7.01 5.29-9.9301 8.57-4.1299 3.53-7.21 8.12-11.47 11.5 1.79 0.72 3.57 1.47 5.39 2.13 5.68 3.35 11.36 6.72 16.66 10.65 19.01 0.74 36.09 12.32 47.04 27.36l0.46 0.11c8.21 11.91 16.89 24.07 20.77 38.21 0.9-4.62 2.18-9.17 2.68-13.86l-0.26-0.4 0.04-1.12c1.72-3.99 1-8.44 1.2-12.65 0.26-20.42-6.2-41.81-21.25-56.18-11.86-11.67-28.96-16.32-45.24-16.18-2.1799-0.14-4.1399 0.82-5.8999 1.97z" fill="#fff" stroke="#fff"/>
	<path d="m259.49 478.57c5.2-4.8 12.98-4.54 19.47-3.14 11.71 2.73 21.52 10.36 29.91 18.65 9.32 9.33 17.18 19.99 24.45 30.96-12.67 8.03-21.98 20.39-28.57 33.69-8.9 17.94-13.51 37.63-16.89 57.27-9.08-20.65-17.63-41.57-24.52-63.06-5.44-17.51-10.34-35.51-10.47-53.96 0.16-7.16 1.13-15.23 6.62-20.41m5.08 5.67c-2.42 3.46-3.38 7.57-3.41 11.76-0.41 10.84 0.98 21.64 3.58 32.15 5.23 22.6 13.62 44.27 22.17 65.78 2.3-9.9 5.61-19.49 8.95-29.06 6.51-15.66 15.66-30.79 29.23-41.3-9.82-14.5-21.33-28.79-36.84-37.49-2.86-2.41-6.61-3.18-10.16-3.93-4.55-0.93-9.68-0.87-13.52 2.09z" fill="#fff" stroke="#fff"/>
	<path d="m664.46 507.57c5.61-1.57 11.89-0.99 16.83 2.22 7 4.45 11.49 11.79 15.07 19.08 7.06 15.05 10.79 31.38 13.91 47.64 4.92 26.17 7.13 52.84 6.94 79.47-0.35 16.43-1.15 33.15-6.11 48.94-2.64 8-6.78 16.47-14.66 20.43-8.5 4.11-19 1.33-25.53-5.13-10.01-9.56-15.2-22.85-19.56-35.7-12.84-41.05-17.84-84.73-12.99-127.55 1.26-10.21 3.17-20.46 7.15-29.99 3.51-8.49 9.6-17 18.95-19.41m2.93 11.94c-5.61 2.03-8.68 7.7-10.71 12.95-4.24 11.68-5.34 24.18-6.16 36.5-1.09 22.35-0.76 44.87 2.51 67.04 2.73 18.83 7.27 37.52 15.08 54.92 2.98 6.67 6.12 13.44 11.01 18.97 2.46 2.71 5.94 5.27 9.83 4.51 3.33-0.76 5.26-3.94 6.68-6.78 3.34-7.41 4.67-15.51 5.9-23.47 4.22-29.99 1.3-60.37-2.07-90.28-2.25-17.86-4.84-35.83-10.56-52.95-2.3-6.43-4.97-13.01-9.8-17.98-2.95-3.07-7.53-4.96-11.71-3.43m-22.69 46.45c-0.86 10.32-0.31 20.68-0.44 31.03-0.48 18.16 2.43 36.17 5.46 54.01-0.31-6.42-2.03-12.66-2.75-19.03-1.35-11.28-2.49-22.62-2.22-33.99 0.04-11.33-0.42-22.68 0.58-33.97 0.21-5.35 1.36-10.61 1.34-15.96-0.7 5.96-1.56 11.91-1.97 17.91m58.53 2.94c1.96 13.95 4.31 27.86 5.43 41.92 1.34 11.37 1.44 22.83 2.56 34.22-0.1 6.72 0.32 13.47-0.6299 20.15-0.96 16.24-2.2401 33.02-9.4301 47.89 9.3-15.99 9.04-35.15 10.53-53.04 0.24-9 0.17-18.02-0.73-26.99-0.52-21.57-3.59-43-7.73-64.15m-44.4 115.34c3.89 10.63 8.21 21.45 15.79 30.05 3.39 3.82 8.07 7.11 13.38 7.07 3.27 0.17 6.21-1.5 8.94-3.1-2.35 0.97-4.61 2.24-7.11 2.75-5.61 0.57-10.97-2.58-14.46-6.79-6.84-8.12-11.07-17.99-15.05-27.72-2.5-6.02-4.31-12.29-6.1-18.54 0.88 5.58 2.79 10.94 4.61 16.28z" fill="#fff" stroke="#fff"/>
	<path d="m332.23 206.21c43.65-28.09 93.59-48.03 145.77-51.2 27.35-1.41 54.78 0.03 81.98 2.99 19.52 2.33 39.04 4.99 58.22 9.37 23.12 5.4 45.59 13.39 67.24 23.1 16.66 7.54 33.05 15.78 48.38 25.79 10.68 7.02 20.93 14.88 29.47 24.44 6.48 7.3 11.97 15.8 14.32 25.38 1.7 6.49 1.16 13.27 0.96 19.91-0.5 12.18-2.47 24.23-4.96 36.14 4.75 22.96 10.14 45.8 15.05 68.73 11.26-2 23.08 0.28 33.44 4.93 16.18 7.5 27.62 22.46 34.7 38.45 8.64 19.68 11.22 41.47 10.96 62.8-0.18 33.35-11.73 66.37-32.02 92.8-1.08 1.58-2.76 2.99-2.71 5.0699-1.47 17-7.75 33.11-14.67 48.55-8.82 18.85-18.65 37.61-32.76 53.08-3.06 12.7-7.0699 25.27-13.31 36.81-8.18 15.34-19.35 29.2-33.1 39.89-11.01 8.55-24.18 14.55-38.09 16.11-16.57 1.9301-33.78-1.69-47.98-10.49-13.67-8.33-24.5-20.58-33.18-33.88-9.26-14.23-16.26-29.81-22.11-45.71-9.02-24.54-14.7-50.33-16.59-76.41-1.42-20.27-0.77-40.64 0.99-60.87 2.35-25.16 7.14-50.35 16.99-73.73 5.95-13.98 13.8-27.47 24.9-38 9.18-8.72 20.85-14.91 33.39-16.94 11.56-1.99 23.45-0.72 34.7 2.37 8.62-14.56 19.45-28.47 34.22-37.18 3.18-2.01 6.77-3.23 10.08-4.98 1.95-3.51 0.23-7.79-0.44-11.49-4.43-15.58-12.26-29.92-19.93-44.1-18.26-32.66-38.7-64.43-64.21-91.96-14.14-15.11-29.96-28.91-48.1-39.01-16.42-9.2-35-14.95-53.91-14.98-21.99-0.1-43.59 6.08-63.41 15.29-32.09 15.04-60.2 37.27-85.95 61.36-21.49 20.26-41.78 42.07-58.21 66.7-14.66 22.21-26.5 47.57-27.06 74.63-0.47 17.71 8.5 34.02 19.32 47.43 8.47 10.19 17.87 19.55 26.56 29.55 7.24 8.38 14.87 16.53 20.83 25.91 20.74-0.02 41.66 2.75 61.2 9.88 16.74 6.09 32.29 15.6 44.99 28.12 22.09 21.46 35.15 50.5 42.56 80.01 6.86 27.47 9.42 55.85 9.75 84.11 0.56 18.27-1.59 36.73-7.54 54.07-10.04 29.95-30.54 55.54-55.16 74.92 16.18-30.46 28.32-63.54 31.52-98.06 4.23-45.19-5.84-90.81-24.19-132.01-8.16-18.38-17.75-36.22-29.87-52.31-9.55-12.6-20.75-24.13-34.02-32.82-11.66-7.67-24.94-12.98-38.78-14.91 0.92 1.82 1.56 3.87 2.88 5.46 16.67 4.68 31.68 14.26 43.82 26.51 22.56 22.62 36.91 51.82 48.72 81.13 16.14 40.49 25.21 84.43 21.56 128.11-1.82 21.96-6.94 43.83-16.68 63.67-6.48 13.28-15.45 25.83-27.95 34.03-12.19 8.13-27.43 10.98-41.87 9.19-14.89-1.71-28.83-8.34-40.8-17.18-9.69-7.1201-18.26-15.65-26.13-24.72-13.37-0.67-25.67-7.7-34.6-17.41-13.01-14.05-21.08-31.79-27.75-49.52-10.89-29.34-13.44-61.75-6.89-92.36-0.89-2.64-2.84-4.84-4.2-7.27-17.68-28.74-34.31-58.36-46.21-90.01-7.95-21.45-13.69-44.56-10.22-67.54 1.46-10.33 5.09-21.63 14.42-27.46 11.18-6.86 24.77-7.61 37.54-7.9 1.64 0.09 3.18-0.5 4.53-1.4-3.95-5.41-10.86-7.29-16.77-9.74-9.74 0.06-20.03-0.54-28.63-5.68-9.5-5.35-15.38-15.35-18.1-25.65-2.71-10.14-3.35-20.75-2.83-31.19 1.07-16.44 5.93-32.36 11.9-47.62 7.78-19.5 17.28-38.43 29.58-55.49 22.37-31.4 52.11-56.92 84.45-77.61m425.87 208.2c-4.56 2.03-8.42 5.3-12.09 8.61-7.23 6.74-13.62 14.31-19.82 21.99 11.16 3.18 20.69 10.13 30.18 16.56 16.44-0.25 31.19 9.42 41.35 21.71 13.17 16.12 23.91 34.99 27.14 55.81 11.33-15.04 13.09-34.88 12.18-53.08-1.09-21.3-9.85-42.69-26.17-56.81-11.21-9.87-26.03-14.89-40.81-15.72-3.98-0.13-8.22-0.83-11.96 0.93m-498.61 64.16c-5.49 5.18-6.46 13.25-6.62 20.41 0.13 18.45 5.03 36.45 10.47 53.96 6.89 21.49 15.44 42.41 24.52 63.06 3.38-19.64 7.99-39.33 16.89-57.27 6.59-13.3 15.9-25.66 28.57-33.69-7.27-10.97-15.13-21.63-24.45-30.96-8.39-8.29-18.2-15.92-29.91-18.65-6.49-1.4-14.27-1.66-19.47 3.14m404.97 29c-9.35 2.41-15.44 10.92-18.95 19.41-3.98 9.53-5.89 19.78-7.15 29.99-4.85 42.82 0.15 86.5 12.99 127.55 4.36 12.85 9.55 26.14 19.56 35.7 6.53 6.46 17.03 9.2401 25.53 5.13 7.88-3.96 12.02-12.43 14.66-20.43 4.96-15.79 5.76-32.51 6.11-48.94 0.19-26.63-2.02-53.3-6.94-79.47-3.12-16.26-6.85-32.59-13.91-47.64-3.58-7.29-8.07-14.63-15.07-19.08-4.94-3.21-11.22-3.79-16.83-2.22z" fill="#010101" stroke="#010101"/>
	<path d="m667.39 519.51c4.18-1.53 8.76 0.36 11.71 3.43 4.83 4.97 7.5 11.55 9.8 17.98 5.72 17.12 8.31 35.09 10.56 52.95 3.37 29.91 6.29 60.29 2.07 90.28-1.23 7.96-2.5601 16.06-5.9 23.47-1.42 2.84-3.35 6.02-6.68 6.78-3.89 0.7599-7.37-1.8-9.83-4.51-4.89-5.53-8.03-12.3-11.01-18.97-7.81-17.4-12.35-36.09-15.08-54.92-3.27-22.17-3.6-44.69-2.51-67.04 0.82-12.32 1.92-24.82 6.16-36.5 2.03-5.25 5.1-10.92 10.71-12.95z" fill="#010101" stroke="#010101"/>
	<path d="m653.59 257.68c2.31 1.92 4.44 4.11 5.84 6.81-2.45-1.79-4.29-4.24-5.84-6.81z" enable-background="new    " fill="#838383" opacity=".77" stroke="#838383"/>
	<path d="m659.58 264.73c4 3.28 6.8 7.68 9.99 11.69 17.41 22.89 32.37 47.55 46 72.85 6.5 12.85 13.58 25.81 16.1 40.15-1.4 0.44-2.79 0.87-4.16 1.34 1.13-0.75 2.27-1.5 3.42-2.23-3.63-16.04-11.73-30.56-19.39-44.95-11.7-21.15-24.37-41.79-38.69-61.28-4.2-6.03-9.18-11.47-13.27-17.57z" fill="#838383" stroke="#838383"/>
	<path d="m807.05 482.78c2.81 0.63 5.65 1.19 8.5 1.71 5.51 6.99 10.12 14.61 14.69 22.24l0.26 0.4c-0.5 4.69-1.78 9.24-2.68 13.86-3.88-14.14-12.56-26.3-20.77-38.21z" fill="#838383" stroke="#838383"/>
	<path d="m790.99 327.91c1.74-8 3.13-16.07 3.97-24.21 0.8101-8.55 1.3101-17.15 0.92-25.74-1.23-11.51-6.5-22.23-13.74-31.15-10.36-13.07-24.21-22.66-37.64-32.3-3.74-2.47-7.29-5.3301-11.45-7.0901 3.6599 3.23 8.0699 5.42 11.97 8.3301 13.29 9.46 26.09 20.42 34.31 34.75 3.49 5.9199 5.5599 12.53 6.97 19.23 0.6499 9.7-0.1201 19.4-0.98 29.06-0.7201 8.1-2.52 16.03-3.8501 24.03 4.28 20.28 9.13 40.45 13.28 60.76 2.9 0.3 5.8201 0.36 8.74 0.21-4.39-18.58-8.3101-37.26-12.5-55.88z" fill="#787878" stroke="#787878"/>
	<path d="m742.89 444.66c2.09-0.55 4.27-0.43 6.24 0.5 5.68 2.71 10.77 6.46 16.26 9.49 10.18 2.98 20.85 5.28 29.92 11.06 7.85 4.93 14.55 11.5 20.24 18.78-2.85-0.52-5.69-1.08-8.5-1.71l-0.46-0.11c-10.95-15.04-28.03-26.62-47.04-27.36-5.3-3.93-10.98-7.3-16.66-10.65z" fill="#787878" stroke="#787878"/>
	<path d="m759.09 422.57c1.7599-1.15 3.72-2.11 5.9-1.97 16.28-0.14 33.38 4.51 45.24 16.18 15.05 14.37 21.51 35.76 21.25 56.18-0.2 4.21 0.52 8.66-1.2 12.65 1.23-16.92 0.0699-34.62-7.73-49.99-5.16-10.26-12.76-19.52-22.61-25.57-7.03-4.71-15.82-5.06-23.99-5.55-2.82-0.32-5.56 0.55-7.82 2.2-3.14-1.1-6.17-2.47-9.04-4.13z" fill="#A8A8A8" stroke="#A8A8A8"/>
	<path d="m748.97 431.03c2.92-3.28 6.3701-6.02 9.9301-8.57l0.19 0.11c2.87 1.66 5.9 3.03 9.04 4.13-2.39 1.68-4.62 3.56-6.76 5.54-2.45-1.11-4.84-2.61-7.55-2.92-1.7301 0.19-3.3101 0.99-4.8501 1.71z" fill="#9B9B9B" stroke="#9B9B9B"/>
	<path d="m748.97 431.03c1.54-0.72 3.1201-1.52 4.85-1.71 2.71 0.31 5.1 1.81 7.55 2.92-4.32 4.07-8.31 8.47-12.24 12.92-1.97-0.93-4.15-1.05-6.24-0.5-1.82-0.66-3.6-1.41-5.39-2.13 4.26-3.38 7.34-7.97 11.47-11.5z" fill="#8F8F8F" stroke="#8F8F8F"/>
	<path d="m618.78 224.35c-12.5-9.21-26.4-16.68-41.36-20.95-16.99-5.3699-35.35-4.72-52.61-0.98-13.53 2.92-26.57 7.8201-38.98 13.91-7.91 3.9599-15.63 8.2699-23.07 13.03-8.27 5.35-16.38 10.94-24.12 17.02-8.64 6.7899-17.15 13.75-25.21 21.21-8.8699 7.9801-17.46 16.27-25.76 24.84-6.91 7.44-13.86 14.86-20.31 22.71-4.36 5.39-8.71 10.79-12.7 16.45-8.05 11.23-15.39 23.03-21 35.68-4.15 9.45-7.4601 19.3-9.16 29.5-1.34 7.28-1.51 14.8-0.6599 22.15 2.5599 13.89 10.29 26.21 19.24 36.89 11.82 13.25 24.16 26.05 35.51 39.72 2.5499 3.14 5.4399 6.1 7.24 9.78 6.2999 1.03 12.68 1.11 19.03 1.52-0.98-0.15-1.9399-0.3-2.91-0.43-13.73-18.42-30.46-34.31-45.11-51.94l-0.27-0.02c-6.2101-8.69-12.15-17.9-14.62-28.43-1.73-6.58-1.51-13.47-0.8199-20.18 1.33-12.19 5.33-23.85 10.07-35.09l-0.26-0.42 0.6901-0.3199c5.51-11.6 12.19-22.61 19.68-33.04 4.36-6.04 8.96-11.91 13.73-17.63 5.98-7.16 12.27-14.04 18.71-20.79 8.0901-8.41 16.53-16.49 25.15-24.36 8.01-7.35 16.48-14.16 24.85-21.07l0.26 0.13c7.91-6.46 16.4-12.2 25.01-17.68 7.04-4.51 14.4-8.48 21.83-12.31l0.0898 0.0601c24.39-11.99 52.2-19.42 79.42-14.67l0.16 0.14c9.4299 1.9099 18.66 4.98 27.26 9.33 8.22 4.42 15.06 10.86 22.6 16.27-3.23-4.0302-7.52-6.9603-11.6-10.03z" fill="#7A7A7A" stroke="#7A7A7A"/>
	<path d="m294.57 567.65c-5.5701-15.54-10.63-31.35-13.51-47.64-1.26-7.17-2.01-14.46-1.67-21.75 0.22-3.91 1.16-7.83 3.2999-11.15 0.99-0.74 2.01-1.41 3.0601-2.05 0.62 0.26 1.87 0.76 2.5 1.02-2.86-2.41-6.61-3.18-10.16-3.93-4.55-0.93-9.6801-0.87-13.52 2.09-2.42 3.46-3.3801 7.57-3.41 11.76-0.41 10.84 0.98 21.64 3.58 32.15 5.23 22.6 13.62 44.27 22.17 65.78 2.2999-9.9 5.61-19.49 8.95-29.06-0.4303 0.92-0.8602 1.85-1.2901 2.78z" fill="#797979" stroke="#797979"/>
	<path d="m385.83 505.31c6.3 1.03 12.68 1.11 19.03 1.52 5.89 0.56 11.8 1.24 17.62 2.31 18.53 4.55 37.5 10.22 52.88 21.93-2-0.82-4.01-1.6-5.89-2.65-24.89-14.68-54.06-20.89-82.74-21.16-0.23-0.49-0.67-1.46-0.9-1.95z" enable-background="new    " fill="#BEBEBE" opacity=".96" stroke="#BEBEBE"/>
	<path d="m581.77 523.9c1.49-6.4301 2.81-12.94 5.18-19.12-7.26 26.12-11.09 53.14-11.71 80.23-1.5 28.91 1.06 58.08 8.1 86.18 4.24 17.64 10.74 34.63 17.72 51.34l-0.38 0.24c-16.8-37.2-26.2-77.84-26.31-118.72-0.09-26.85 1.75-53.84 7.4-80.15z" fill="#7D7D7D" stroke="#7D7D7D"/>
	<path d="m883.18 486.02c-1.3599-25.87-7.71-52.85-24.64-73.12-8.46-11.3-20.97-18.9-33.99-23.84 3.6 2.55 7.71 4.26 11.32 6.81 5.7999 4.05 10.78 9.17 15.36 14.55 15.68 20.04 22.29 45.6 23.76 70.63 0.78 9.24 0.6001 18.55-0.1799 27.79-1.5701 20.95-7.49 41.56-17.04 60.27-4.8201 9.48-10.75 18.33-16.97 26.93-0.0701 0.43-0.22 1.29-0.3 1.72-2.02 17.28-8.3101 33.71-15.46 49.44-7.3501 15.65-15.45 31.07-25.85 44.93-2.02 2.63-4.3099 5.04-6.3799 7.63-5.0601 20.31-13.29 40.09-26.38 56.58-6.3099 7.86-13.19 15.35-21.17 21.55-8.0701 6.33-17.05 11.42-26.64 15.04 11.55-2.36 22.53-7.22 32.17-13.99 8.9099-6.3 16.83-13.96 23.61-22.49l0.22 0.01c13.27-16.71 22.74-36.43 27.19-57.31 1.8999-2.28 3.8199-4.55 5.72-6.83 10.43-13.52 18.45-28.69 25.78-44.06 7.45-16.38 14.23-33.47 15.92-51.54 6.15-8.22 11.92-16.78 16.48-25.99l0.1801 0.03c9.21-18.27 15.14-38.2 16.89-58.6 0.7399-8.7 0.81-17.43 0.3998-26.14z" fill="#A2A2A2" stroke="#A2A2A2"/>
	<g fill="#9E9E9E" stroke="#9E9E9E">
		<path d="m559.17 667.9c-4.3999-36.56-14.19-73.67-36.09-103.85-1.24 0.085-2.4825 0.1275-3.723 0.1197 1.2405 0.0078 2.483-0.0347 3.723-0.1197-3.6101-4.92-7.52-9.61-11.75-14-2.345-0.04-4.6826-0.1675-7.0176-0.32 2.335 0.1525 4.6726 0.28 7.0176 0.32-23.02-24.35-55.78-38-88.85-40.91 18.53 4.55 37.5 10.22 52.88 21.93 7.92 5.27 15.35 11.32 21.95 18.19 1.1675 0.07 2.3344 0.1494 3.5012 0.2303-1.1669-0.0809-2.3337-0.1603-3.5012-0.2303 3.8899 4.25 7.6399 8.63 11.06 13.27 24.06 32.7 33.87 73.41 37.89 113.19 1.5801 20.06 3.2 40.27 1.4299 60.38-1.4099 18.43-6.5499 36.57-14.73 53.14-4.8799 9.88-10.77 19.26-17.61 27.9-5.59 7.11-11.78 13.73-18.27 20.02-5.24 4.84-10.51 9.6801-16.26 13.91 5.0499-1.35 10.23-2.39 15.13-4.22 4.5601-3.05 8.6101-6.84 12.58-10.61 6.6799-5.68 12.57-12.27 18.23-18.95 7.26-8.69 13.56-18.18 18.79-28.21 8.79-16.86 14.09-35.48 15.83-54.4 1.47-22.25 0.22-44.64-2.2101-66.78z"/>
		<path d="m444.75 865.95c12.15-2.65 24.42-6.45 34.21-14.44-2.5399-0.75-4.5699-2.45-6.4299-4.23-7.4901 8.45-17.22 14.76-27.78 18.67z"/>
	</g>
</g>
</svg>
